<mxfile host="www.draw.io" modified="2019-11-21T14:17:05.925Z" agent="Mozilla/5.0 (Windows NT 10.0; WOW64; rv:68.0) Gecko/20100101 Firefox/68.0" etag="XHs4hb2yGTXpSTQ7Xxba" version="12.2.8" type="github" pages="1">
  <diagram id="F032D_sMp5SQkWm_yYtZ" name="Page-1">
    <mxGraphModel dx="670" dy="417" grid="1" gridSize="10" guides="1" tooltips="1" connect="1" arrows="1" fold="1" page="1" pageScale="1" pageWidth="291" pageHeight="413" math="0" shadow="0">
      <root>
        <mxCell id="0"/>
        <mxCell id="1" parent="0"/>
        <mxCell id="n8YwicQ1QA94IC9u765F-30" style="edgeStyle=orthogonalEdgeStyle;rounded=0;orthogonalLoop=1;jettySize=auto;html=1;entryX=0.5;entryY=0;entryDx=0;entryDy=0;" parent="1" source="n8YwicQ1QA94IC9u765F-2" target="n8YwicQ1QA94IC9u765F-7" edge="1">
          <mxGeometry relative="1" as="geometry"/>
        </mxCell>
        <mxCell id="n8YwicQ1QA94IC9u765F-2" value="Time based data" style="shape=cylinder;whiteSpace=wrap;html=1;boundedLbl=1;backgroundOutline=1;" parent="1" vertex="1">
          <mxGeometry x="30" y="10" width="100" height="50" as="geometry"/>
        </mxCell>
        <mxCell id="n8YwicQ1QA94IC9u765F-27" style="edgeStyle=orthogonalEdgeStyle;rounded=0;orthogonalLoop=1;jettySize=auto;html=1;" parent="1" source="n8YwicQ1QA94IC9u765F-5" target="n8YwicQ1QA94IC9u765F-9" edge="1">
          <mxGeometry relative="1" as="geometry"/>
        </mxCell>
        <mxCell id="n8YwicQ1QA94IC9u765F-5" value="Select time range" style="rounded=0;whiteSpace=wrap;html=1;" parent="1" vertex="1">
          <mxGeometry x="30" y="160" width="100" height="20" as="geometry"/>
        </mxCell>
        <mxCell id="n8YwicQ1QA94IC9u765F-28" style="edgeStyle=orthogonalEdgeStyle;rounded=0;orthogonalLoop=1;jettySize=auto;html=1;entryX=0.5;entryY=0;entryDx=0;entryDy=0;" parent="1" source="n8YwicQ1QA94IC9u765F-6" target="n8YwicQ1QA94IC9u765F-5" edge="1">
          <mxGeometry relative="1" as="geometry"/>
        </mxCell>
        <mxCell id="n8YwicQ1QA94IC9u765F-6" value="Forward Fill" style="rounded=0;whiteSpace=wrap;html=1;" parent="1" vertex="1">
          <mxGeometry x="30" y="120" width="100" height="20" as="geometry"/>
        </mxCell>
        <mxCell id="n8YwicQ1QA94IC9u765F-29" style="edgeStyle=orthogonalEdgeStyle;rounded=0;orthogonalLoop=1;jettySize=auto;html=1;entryX=0.5;entryY=0;entryDx=0;entryDy=0;" parent="1" source="n8YwicQ1QA94IC9u765F-7" target="n8YwicQ1QA94IC9u765F-6" edge="1">
          <mxGeometry relative="1" as="geometry"/>
        </mxCell>
        <mxCell id="n8YwicQ1QA94IC9u765F-7" value="Sort by Time" style="rounded=0;whiteSpace=wrap;html=1;" parent="1" vertex="1">
          <mxGeometry x="30" y="80" width="100" height="20" as="geometry"/>
        </mxCell>
        <mxCell id="n8YwicQ1QA94IC9u765F-25" style="edgeStyle=orthogonalEdgeStyle;rounded=0;orthogonalLoop=1;jettySize=auto;html=1;entryX=0.5;entryY=0;entryDx=0;entryDy=0;" parent="1" source="n8YwicQ1QA94IC9u765F-8" target="n8YwicQ1QA94IC9u765F-16" edge="1">
          <mxGeometry relative="1" as="geometry"/>
        </mxCell>
        <mxCell id="n8YwicQ1QA94IC9u765F-8" value="Select given Depth range" style="rounded=0;whiteSpace=wrap;html=1;" parent="1" vertex="1">
          <mxGeometry x="30" y="240" width="100" height="30" as="geometry"/>
        </mxCell>
        <mxCell id="n8YwicQ1QA94IC9u765F-26" style="edgeStyle=orthogonalEdgeStyle;rounded=0;orthogonalLoop=1;jettySize=auto;html=1;entryX=0.5;entryY=0;entryDx=0;entryDy=0;" parent="1" source="n8YwicQ1QA94IC9u765F-9" target="n8YwicQ1QA94IC9u765F-8" edge="1">
          <mxGeometry relative="1" as="geometry"/>
        </mxCell>
        <mxCell id="n8YwicQ1QA94IC9u765F-9" value="Sort by Depth" style="rounded=0;whiteSpace=wrap;html=1;" parent="1" vertex="1">
          <mxGeometry x="30" y="200" width="100" height="20" as="geometry"/>
        </mxCell>
        <mxCell id="n8YwicQ1QA94IC9u765F-24" style="edgeStyle=orthogonalEdgeStyle;rounded=0;orthogonalLoop=1;jettySize=auto;html=1;exitX=0.5;exitY=1;exitDx=0;exitDy=0;entryX=0.5;entryY=0;entryDx=0;entryDy=0;" parent="1" source="n8YwicQ1QA94IC9u765F-10" target="n8YwicQ1QA94IC9u765F-11" edge="1">
          <mxGeometry relative="1" as="geometry"/>
        </mxCell>
        <mxCell id="n8YwicQ1QA94IC9u765F-10" value="Depth based data with a gap" style="shape=cylinder;whiteSpace=wrap;html=1;boundedLbl=1;backgroundOutline=1;" parent="1" vertex="1">
          <mxGeometry x="150" y="170" width="100" height="50" as="geometry"/>
        </mxCell>
        <mxCell id="n8YwicQ1QA94IC9u765F-21" style="edgeStyle=orthogonalEdgeStyle;rounded=0;orthogonalLoop=1;jettySize=auto;html=1;exitX=0.5;exitY=1;exitDx=0;exitDy=0;entryX=1;entryY=0.5;entryDx=0;entryDy=0;" parent="1" source="n8YwicQ1QA94IC9u765F-11" target="n8YwicQ1QA94IC9u765F-17" edge="1">
          <mxGeometry relative="1" as="geometry"/>
        </mxCell>
        <mxCell id="n8YwicQ1QA94IC9u765F-11" value="Remove given depth range" style="rounded=0;whiteSpace=wrap;html=1;" parent="1" vertex="1">
          <mxGeometry x="150" y="240" width="100" height="30" as="geometry"/>
        </mxCell>
        <mxCell id="n8YwicQ1QA94IC9u765F-20" style="edgeStyle=orthogonalEdgeStyle;rounded=0;orthogonalLoop=1;jettySize=auto;html=1;exitX=0.5;exitY=1;exitDx=0;exitDy=0;entryX=0;entryY=0.5;entryDx=0;entryDy=0;" parent="1" source="n8YwicQ1QA94IC9u765F-16" target="n8YwicQ1QA94IC9u765F-17" edge="1">
          <mxGeometry relative="1" as="geometry"/>
        </mxCell>
        <mxCell id="n8YwicQ1QA94IC9u765F-16" value="Adjust attribute names" style="rounded=0;whiteSpace=wrap;html=1;" parent="1" vertex="1">
          <mxGeometry x="30" y="290" width="100" height="30" as="geometry"/>
        </mxCell>
        <mxCell id="n8YwicQ1QA94IC9u765F-35" style="edgeStyle=orthogonalEdgeStyle;rounded=0;orthogonalLoop=1;jettySize=auto;html=1;exitX=0.5;exitY=1;exitDx=0;exitDy=0;entryX=0.5;entryY=0;entryDx=0;entryDy=0;" parent="1" source="n8YwicQ1QA94IC9u765F-17" target="n8YwicQ1QA94IC9u765F-32" edge="1">
          <mxGeometry relative="1" as="geometry"/>
        </mxCell>
        <mxCell id="n8YwicQ1QA94IC9u765F-17" value="Merge" style="rhombus;whiteSpace=wrap;html=1;" parent="1" vertex="1">
          <mxGeometry x="100" y="340" width="80" height="40" as="geometry"/>
        </mxCell>
        <mxCell id="n8YwicQ1QA94IC9u765F-32" value="Gap-filled depth based data" style="shape=cylinder;whiteSpace=wrap;html=1;boundedLbl=1;backgroundOutline=1;" parent="1" vertex="1">
          <mxGeometry x="90" y="400" width="100" height="50" as="geometry"/>
        </mxCell>
      </root>
    </mxGraphModel>
  </diagram>
</mxfile>
